<?xml version="1.0" standalone="no"?>
<!DOCTYPE svg PUBLIC "-//W3C//DTD SVG 20010904//EN"
 "http://www.w3.org/TR/2001/REC-SVG-20010904/DTD/svg10.dtd">
<svg version="1.0" xmlns="http://www.w3.org/2000/svg"
 width="500.000000pt" height="500.000000pt" viewBox="0 0 500.000000 500.000000"
 preserveAspectRatio="xMidYMid meet">

<g transform="translate(0.000000,500.000000) scale(0.100000,-0.100000)"
fill="#000000" stroke="none">
<path d="M1198 3436 c-15 -8 -29 -12 -31 -10 -8 8 -86 -75 -87 -93 -1 -10 -4
-199 -7 -421 -4 -362 -2 -403 12 -408 9 -4 21 0 28 8 39 47 130 69 205 49 26
-7 58 -27 80 -49 38 -38 38 -38 34 -11 -2 15 1 37 8 49 12 22 14 23 165 17
133 -4 157 -3 193 13 22 10 43 16 45 13 3 -2 16 1 29 8 12 7 26 12 31 11 4 -1
7 3 7 9 0 5 4 8 8 5 5 -3 18 4 30 14 12 11 23 20 25 20 2 0 25 20 50 45 26 25
44 45 41 45 -4 0 0 7 7 16 7 9 14 23 15 32 2 8 8 18 15 22 6 5 9 15 6 25 -4 9
-3 14 2 11 5 -3 9 5 9 18 0 13 5 47 13 75 10 41 11 61 1 96 -7 25 -12 58 -12
75 0 16 -4 32 -10 35 -5 3 -10 15 -10 26 0 10 -5 19 -11 19 -5 0 -8 4 -4 9 3
5 -3 17 -12 27 -10 10 -17 20 -16 23 6 15 -103 109 -148 128 -16 7 -29 9 -29
6 0 -3 -11 2 -25 11 -16 10 -35 15 -48 11 -17 -5 -19 -4 -7 4 12 8 9 10 -15
10 -16 0 -48 2 -70 6 -22 4 -141 9 -265 11 -181 3 -230 1 -252 -10z m340 -3
c-54 -2 -142 -2 -195 0 -54 1 -10 3 97 3 107 0 151 -2 98 -3z m115 -295 c9 -2
23 -10 29 -16 7 -7 16 -12 20 -12 38 0 73 -104 52 -155 -15 -37 -65 -83 -83
-77 -8 3 -11 1 -8 -4 3 -5 -47 -8 -114 -6 l-119 3 0 117 c0 174 -6 164 109
159 53 -2 104 -6 114 -9z"/>
<path d="M2415 3431 c-48 -22 -69 -44 -90 -94 -13 -31 -15 -107 -15 -519 0
-447 2 -486 19 -523 22 -48 44 -69 94 -90 30 -12 95 -15 394 -15 l358 0 -39
23 c-55 31 -78 78 -73 150 3 49 8 62 37 92 19 20 48 40 65 44 19 6 -59 10
-222 10 l-251 1 -4 76 c-2 42 -1 78 1 80 2 2 79 4 170 4 l166 0 -40 19 c-57
25 -79 63 -79 131 0 68 22 106 79 131 l40 19 -166 0 c-91 0 -168 2 -170 4 -2
2 -3 38 -1 80 l4 76 225 0 226 0 -40 29 c-98 71 -92 209 11 272 31 19 28 19
-314 19 -313 0 -349 -2 -385 -19z"/>
<path d="M3540 2752 c0 -499 -2 -482 64 -539 63 -56 179 -56 242 -1 66 58 64
41 64 540 l0 453 -26 -37 c-73 -103 -249 -103 -319 0 l-25 37 0 -453z"/>
<path d="M2234 1996 c-17 -13 -19 -29 -22 -188 -3 -193 4 -221 51 -226 55 -6
57 3 57 214 0 181 -1 194 -19 204 -27 14 -44 13 -67 -4z"/>
<path d="M2647 1992 c-15 -16 -17 -45 -17 -203 0 -199 2 -209 51 -209 55 0 59
14 59 215 0 179 -1 184 -22 199 -29 21 -51 20 -71 -2z"/>
<path d="M3637 1992 c-14 -16 -17 -43 -17 -166 0 -176 9 -204 74 -236 52 -25
99 -25 153 -1 60 28 76 64 71 162 -3 73 -6 81 -35 111 -26 26 -39 31 -77 31
-25 0 -52 -5 -60 -13 -14 -11 -16 -6 -16 42 0 40 -5 59 -18 71 -24 22 -55 21
-75 -1z m162 -196 c18 -22 10 -117 -11 -130 -31 -19 -53 4 -56 61 -4 69 35
108 67 69z"/>
<path d="M1152 1890 c-67 -16 -102 -70 -102 -158 0 -70 26 -117 80 -145 73
-38 200 1 200 62 0 52 -42 67 -87 31 -51 -40 -83 -17 -83 59 0 63 39 90 75 51
10 -11 28 -20 41 -20 25 0 54 24 54 44 0 26 -41 65 -78 76 -42 11 -53 11 -100
0z"/>
<path d="M1705 1885 c-47 -17 -71 -43 -85 -93 -32 -118 22 -208 132 -218 65
-6 112 15 145 65 44 66 24 189 -37 232 -36 25 -107 32 -155 14z m87 -92 c34
-31 19 -133 -20 -133 -30 0 -42 22 -42 75 0 70 24 93 62 58z"/>
<path d="M3115 1885 c-61 -22 -81 -58 -49 -89 19 -20 44 -20 70 -1 27 20 61
19 73 -4 14 -26 5 -31 -51 -31 -88 0 -139 -49 -123 -120 14 -62 115 -90 164
-46 16 15 19 15 31 1 17 -21 63 -19 83 3 13 14 17 38 17 103 0 93 -16 139 -60
170 -36 25 -107 32 -155 14z m105 -194 c0 -16 -31 -41 -50 -41 -22 0 -34 15
-26 35 6 17 76 21 76 6z"/>
</g>
</svg>
